<svg xmlns="http://www.w3.org/2000/svg" version="1.0" width="512.000000" height="512.000000" viewBox="0 0 512.000000 512.000000" preserveAspectRatio="xMidYMid meet"><g transform="translate(0.000000,512.000000) scale(0.100000,-0.100000)" fill="#ffffff" stroke="none"><path d="M4000 3975 c0 -20 -5 -25 -25 -25 -18 0 -25 -5 -25 -20 0 -15 -7 -20 -25 -20 -18 0 -25 5 -25 20 0 13 -7 20 -20 20 -13 0 -20 -7 -20 -20 0 -15 -7 -20 -25 -20 -20 0 -25 -5 -25 -25 0 -20 -5 -25 -25 -25 -20 0 -25 -5 -25 -25 0 -23 -4 -25 -45 -25 l-45 0 0 -115 0 -115 -45 0 c-41 0 -45 -2 -45 -25 0 -20 -5 -25 -25 -25 -20 0 -25 -5 -25 -25 0 -20 -5 -25 -25 -25 -18 0 -25 -5 -25 -19 0 -13 -8 -21 -22 -23 -15 -2 -24 -11 -26 -25 -3 -19 1 -23 22 -23 21 0 26 -5 26 -25 0 -18 -5 -25 -20 -25 -13 0 -22 9 -26 25 -5 22 -12 25 -50 25 -40 0 -44 -2 -44 -25 0 -20 -5 -25 -25 -25 -20 0 -25 -5 -25 -25 0 -18 -5 -25 -20 -25 -13 0 -20 -7 -20 -20 0 -15 -7 -20 -25 -20 -20 0 -25 -5 -25 -25 0 -23 -3 -25 -50 -25 -47 0 -50 -2 -50 -25 0 -18 -5 -25 -20 -25 -13 0 -20 -7 -20 -20 0 -15 -7 -20 -25 -20 -20 0 -25 -5 -25 -25 0 -20 -5 -25 -25 -25 -20 0 -25 -5 -25 -25 0 -23 -4 -25 -44 -25 -39 0 -45 -3 -48 -22 -2 -15 -11 -24 -25 -26 -15 -2 -23 -10 -23 -23 0 -12 -7 -19 -20 -19 -15 0 -20 -7 -20 -25 0 -20 -5 -25 -25 -25 -20 0 -25 -5 -25 -25 0 -23 -3 -25 -50 -25 -43 0 -50 -3 -50 -20 0 -13 -7 -20 -20 -20 -15 0 -20 -7 -20 -25 0 -20 -5 -25 -25 -25 -20 0 -25 -5 -25 -25 l0 -25 -374 0 -375 0 -3 -22 -3 -23 -232 -3 c-225 -2 -233 -3 -233 -22 0 -19 -7 -20 -190 -20 l-190 0 0 -25 0 -25 -139 0 c-137 0 -140 0 -143 -22 -2 -15 -11 -24 -25 -26 -33 -5 -31 -42 2 -42 20 0 25 -5 25 -25 0 -18 5 -25 20 -25 15 0 20 -7 20 -25 0 -20 5 -25 25 -25 23 0 25 -4 25 -45 0 -41 2 -45 25 -45 20 0 25 -5 25 -25 0 -20 5 -25 25 -25 23 0 25 -4 25 -45 0 -38 3 -45 20 -45 15 0 20 -7 20 -25 0 -20 5 -25 25 -25 23 0 25 -4 25 -44 0 -39 3 -45 23 -48 14 -2 23 -11 25 -25 2 -15 10 -23 23 -23 14 0 19 -7 19 -25 0 -20 5 -25 25 -25 23 0 25 -4 25 -45 0 -41 2 -45 25 -45 20 0 25 -5 25 -25 0 -18 5 -25 20 -25 15 0 20 -7 20 -25 0 -20 5 -25 25 -25 18 0 25 -5 25 -20 0 -15 7 -20 25 -20 20 0 25 -5 25 -25 0 -20 5 -25 25 -25 23 0 25 -4 25 -45 0 -38 3 -45 20 -45 15 0 20 -7 20 -25 0 -20 5 -25 25 -25 20 0 25 -5 25 -25 0 -20 5 -25 25 -25 20 0 25 -5 25 -25 0 -18 5 -25 20 -25 13 0 20 -7 20 -20 0 -15 7 -20 25 -20 20 0 25 -5 25 -25 0 -20 5 -25 25 -25 20 0 25 -5 25 -25 0 -23 4 -25 45 -25 38 0 45 -3 45 -20 0 -15 7 -20 25 -20 20 0 25 -5 25 -25 0 -23 4 -25 45 -25 41 0 45 -2 45 -25 0 -20 5 -25 25 -25 20 0 25 -5 25 -25 0 -23 3 -25 50 -25 43 0 50 -3 50 -20 0 -17 7 -20 45 -20 41 0 45 -2 45 -25 0 -23 4 -25 45 -25 41 0 45 -2 45 -25 0 -20 5 -25 25 -25 19 0 25 -5 25 -23 0 -20 4 -22 45 -19 43 4 45 3 45 -22 0 -21 5 -26 25 -26 20 0 25 -5 25 -25 0 -24 2 -25 70 -25 68 0 70 -1 70 -25 0 -20 5 -25 25 -25 18 0 25 -5 25 -20 0 -15 7 -20 25 -20 20 0 25 -5 25 -25 0 -25 1 -25 90 -25 l90 0 0 445 c0 438 0 445 -20 445 -20 0 -20 7 -20 520 0 513 0 520 20 520 15 0 20 7 20 25 0 20 5 25 25 25 20 0 25 5 25 25 0 20 5 25 25 25 18 0 25 5 25 20 0 15 7 20 25 20 20 0 25 5 25 25 0 18 5 25 20 25 15 0 20 7 20 25 0 23 3 25 50 25 47 0 50 2 50 25 0 18 5 25 20 25 13 0 20 7 20 20 0 15 7 20 25 20 20 0 25 5 25 25 0 20 5 25 25 25 20 0 25 5 25 25 0 18 5 25 20 25 13 0 20 7 20 20 0 17 7 20 50 20 47 0 50 2 50 25 0 20 5 25 25 25 20 0 25 5 25 25 0 18 5 25 20 25 13 0 20 7 20 20 0 15 7 20 25 20 20 0 25 5 25 25 0 20 5 25 25 25 20 0 25 5 25 25 0 23 4 25 45 25 41 0 45 2 45 25 0 20 5 25 25 25 18 0 25 5 25 20 0 13 7 20 20 20 15 0 20 7 20 25 0 20 5 25 25 25 20 0 25 5 25 25 0 20 5 25 26 25 21 0 25 4 22 23 -2 14 -11 23 -25 25 -33 5 -31 42 2 42 20 0 25 -5 25 -25 0 -24 2 -25 70 -25 63 0 70 -2 70 -20 0 -17 7 -20 45 -20 38 0 45 3 45 20 0 17 7 20 50 20 47 0 50 2 50 25 0 20 5 25 25 25 20 0 25 5 25 25 0 18 5 25 19 25 13 0 21 8 23 23 3 19 10 22 51 25 39 3 47 6 47 23 0 14 7 19 25 19 23 0 25 3 25 50 0 47 -2 50 -25 50 -18 0 -25 5 -25 20 0 15 -7 20 -25 20 -20 0 -25 5 -25 25 0 20 -5 25 -26 25 -23 0 -26 3 -22 25 4 21 1 25 -18 25 -17 0 -24 6 -24 20 0 15 -7 20 -25 20 -20 0 -25 5 -25 25 0 24 -2 25 -70 25 -68 0 -70 -1 -70 -25z m-100 -90 c0 -18 -5 -25 -20 -25 -15 0 -20 -7 -20 -25 0 -20 -5 -25 -25 -25 -18 0 -25 -5 -25 -20 0 -15 -7 -20 -25 -20 -20 0 -25 -5 -25 -25 0 -20 -5 -25 -26 -25 -21 0 -25 4 -22 23 2 14 11 23 26 25 14 2 22 10 22 23 0 14 7 19 25 19 20 0 25 5 25 25 0 20 5 25 25 25 20 0 25 5 25 25 0 18 5 25 20 25 15 0 20 -7 20 -25z m148 -47 c3 -13 -3 -18 -22 -18 -20 0 -26 5 -26 21 0 15 5 20 22 17 13 -2 24 -11 26 -20z m-48 -48 c0 -15 -7 -20 -25 -20 -20 0 -25 -5 -25 -25 0 -18 -5 -25 -20 -25 -15 0 -20 7 -20 25 0 18 5 25 20 25 13 0 20 7 20 20 0 15 7 20 25 20 18 0 25 -5 25 -20z m140 -45 c0 -20 -5 -25 -25 -25 -18 0 -25 5 -25 18 0 10 3 22 7 25 3 4 15 7 25 7 13 0 18 -7 18 -25z m-280 -50 c0 -20 -5 -25 -25 -25 -20 0 -25 -5 -25 -24 0 -19 -4 -22 -25 -18 -16 3 -25 11 -25 23 0 14 7 19 25 19 20 0 25 5 25 25 0 20 5 25 25 25 20 0 25 -5 25 -25z m180 0 c0 -18 -5 -25 -20 -25 -13 0 -20 -7 -20 -20 0 -15 -7 -20 -25 -20 -18 0 -25 5 -25 20 0 15 7 20 25 20 20 0 25 5 25 25 0 18 5 25 20 25 15 0 20 -7 20 -25z m-280 -96 c0 -12 -7 -19 -20 -19 -14 0 -20 7 -20 24 0 19 4 23 20 19 11 -3 20 -14 20 -24z m190 1 c0 -13 -7 -20 -20 -20 -13 0 -20 7 -20 20 0 13 7 20 20 20 13 0 20 -7 20 -20z m-240 -45 c0 -18 -5 -25 -20 -25 -13 0 -20 -7 -20 -20 0 -15 -7 -20 -25 -20 -18 0 -25 5 -25 20 0 15 7 20 25 20 20 0 25 5 25 25 0 18 5 25 20 25 15 0 20 -7 20 -25z m150 0 c0 -20 -5 -25 -25 -25 -20 0 -25 5 -25 25 0 20 5 25 25 25 20 0 25 -5 25 -25z m-240 -95 c0 -13 -7 -20 -20 -20 -13 0 -20 7 -20 20 0 13 7 20 20 20 13 0 20 -7 20 -20z m140 0 c0 -13 -7 -20 -20 -20 -13 0 -20 7 -20 20 0 13 7 20 20 20 13 0 20 -7 20 -20z m-230 -50 c0 -15 -7 -20 -25 -20 -18 0 -25 5 -25 20 0 15 7 20 25 20 18 0 25 -5 25 -20z m140 0 c0 -15 -7 -20 -25 -20 -20 0 -25 -5 -25 -25 0 -18 -5 -25 -20 -25 -15 0 -20 7 -20 25 0 18 5 25 20 25 13 0 20 7 20 20 0 15 7 20 25 20 18 0 25 -5 25 -20z m-240 -90 c0 -13 -7 -20 -20 -20 -13 0 -20 7 -20 20 0 13 7 20 20 20 13 0 20 -7 20 -20z m140 0 c0 -13 -7 -20 -20 -20 -13 0 -20 7 -20 20 0 13 7 20 20 20 13 0 20 -7 20 -20z m-190 -50 c0 -13 -7 -20 -20 -20 -13 0 -20 7 -20 20 0 13 7 20 20 20 13 0 20 -7 20 -20z m150 0 c0 -15 -7 -20 -25 -20 -18 0 -25 5 -25 20 0 15 7 20 25 20 18 0 25 -5 25 -20z m-240 -45 c0 -18 -5 -25 -20 -25 -15 0 -20 7 -20 25 0 18 5 25 20 25 15 0 20 -7 20 -25z m140 0 c0 -18 -5 -25 -20 -25 -15 0 -20 7 -20 25 0 18 5 25 20 25 15 0 20 -7 20 -25z m-190 -45 c0 -13 -7 -20 -20 -20 -13 0 -20 7 -20 20 0 13 7 20 20 20 13 0 20 -7 20 -20z m143 0 c4 -16 0 -20 -19 -20 -17 0 -24 6 -24 20 0 13 7 20 19 20 10 0 21 -9 24 -20z m-183 -50 c0 -15 -7 -20 -25 -20 -20 0 -25 -5 -25 -25 0 -20 5 -25 25 -25 18 0 25 -5 25 -18 0 -25 -7 -31 -31 -25 -10 3 -19 14 -19 24 0 12 -7 19 -19 19 -10 0 -21 9 -24 19 -6 24 0 31 25 31 11 0 18 7 18 20 0 15 7 20 25 20 18 0 25 -5 25 -20z m140 0 c0 -15 -7 -20 -25 -20 -18 0 -25 5 -25 20 0 15 7 20 25 20 18 0 25 -5 25 -20z m-50 -50 c0 -13 -7 -20 -20 -20 -13 0 -20 7 -20 20 0 13 7 20 20 20 13 0 20 -7 20 -20z m-232 -42 c-2 -15 -11 -24 -25 -26 -15 -2 -23 -10 -23 -23 0 -14 -7 -19 -25 -19 -18 0 -25 5 -25 20 0 15 7 20 25 20 20 0 25 5 25 25 0 20 5 25 26 25 21 0 25 -4 22 -22z m92 -48 c0 -13 -7 -20 -19 -20 -10 0 -21 9 -24 20 -4 16 0 20 19 20 17 0 24 -6 24 -20z m-190 -50 c0 -13 -7 -20 -20 -20 -13 0 -20 7 -20 20 0 13 7 20 20 20 13 0 20 -7 20 -20z m140 0 c0 -13 -7 -20 -20 -20 -13 0 -20 7 -20 20 0 13 7 20 20 20 13 0 20 -7 20 -20z m-190 -45 c0 -18 -5 -25 -20 -25 -13 0 -20 -7 -20 -20 0 -15 -7 -20 -25 -20 -18 0 -25 5 -25 20 0 15 7 20 25 20 20 0 25 5 25 25 0 18 5 25 20 25 15 0 20 -7 20 -25z m148 -2 c3 -19 -1 -23 -22 -23 -19 0 -26 -5 -26 -20 0 -13 -7 -20 -20 -20 -13 0 -20 7 -20 20 0 13 7 20 20 20 15 0 20 7 20 26 0 21 4 25 23 22 14 -2 23 -11 25 -25z m-288 -93 c0 -13 -7 -20 -20 -20 -13 0 -20 7 -20 20 0 13 7 20 20 20 13 0 20 -7 20 -20z m140 0 c0 -13 -7 -20 -20 -20 -13 0 -20 7 -20 20 0 13 7 20 20 20 13 0 20 -7 20 -20z m-182 -47 c3 -19 -1 -23 -22 -23 -21 0 -26 -5 -26 -25 0 -18 -5 -25 -20 -25 -15 0 -20 7 -20 25 0 18 5 25 20 25 15 0 20 7 20 26 0 21 4 25 23 22 14 -2 23 -11 25 -25z m142 -3 c0 -15 -7 -20 -25 -20 -20 0 -25 -5 -25 -25 0 -18 -5 -25 -20 -25 -15 0 -20 7 -20 25 0 18 5 25 20 25 13 0 20 7 20 20 0 15 7 20 25 20 18 0 25 -5 25 -20z m-240 -90 c0 -13 -7 -20 -20 -20 -13 0 -20 7 -20 20 0 13 7 20 20 20 13 0 20 -7 20 -20z m140 0 c0 -13 -7 -20 -20 -20 -13 0 -20 7 -20 20 0 13 7 20 20 20 13 0 20 -7 20 -20z m-190 -50 c0 -13 -7 -20 -20 -20 -13 0 -20 7 -20 20 0 13 7 20 20 20 13 0 20 -7 20 -20z m150 0 c0 -15 -7 -20 -25 -20 -20 0 -25 -5 -25 -25 0 -20 -5 -25 -26 -25 -21 0 -25 4 -22 23 2 14 11 23 26 25 14 2 22 10 22 23 0 14 7 19 25 19 18 0 25 -5 25 -20z m-760 -64 c0 -38 -3 -45 -22 -48 -20 -3 -22 -9 -23 -50 0 -43 2 -48 23 -48 20 0 22 -5 22 -50 l0 -50 90 0 c71 0 90 -3 90 -14 0 -8 -8 -17 -17 -19 -14 -4 -12 -5 5 -6 20 -1 22 -6 22 -51 0 -47 2 -50 25 -50 20 0 25 5 25 25 0 20 5 25 25 25 20 0 25 5 25 25 0 18 5 25 19 25 13 0 21 8 23 23 2 14 11 23 26 25 18 3 22 -1 22 -22 0 -21 -5 -26 -25 -26 -20 0 -25 -5 -25 -25 0 -18 -5 -25 -20 -25 -15 0 -20 -7 -20 -25 0 -20 -5 -25 -25 -25 l-25 0 0 -140 0 -140 25 0 c23 0 25 -3 25 -50 0 -43 3 -50 20 -50 13 0 20 -7 20 -20 0 -15 7 -20 25 -20 20 0 25 -5 25 -25 0 -20 5 -25 25 -25 20 0 25 -5 25 -25 0 -24 2 -25 70 -25 68 0 70 1 70 25 0 20 5 25 25 25 20 0 25 5 25 25 0 23 4 25 45 25 l45 0 0 -400 0 -400 -50 0 c-47 0 -50 -2 -50 -25 0 -23 -4 -25 -45 -25 l-45 0 0 -45 c0 -38 -3 -45 -20 -45 -15 0 -20 7 -20 25 0 20 -5 25 -25 25 -18 0 -25 5 -25 20 0 17 -7 20 -50 20 -47 0 -50 2 -50 25 0 23 -4 25 -45 25 -41 0 -45 2 -45 25 0 23 -3 25 -49 25 -44 0 -49 2 -44 20 5 19 -9 26 -39 21 -5 0 -8 10 -8 24 0 23 -3 25 -49 25 -46 0 -48 1 -43 25 4 22 1 25 -22 25 -21 0 -26 5 -26 26 0 25 -2 26 -45 22 -41 -3 -45 -1 -45 19 0 21 -5 23 -50 23 -47 0 -50 2 -50 25 0 20 -5 25 -25 25 -20 0 -24 5 -22 22 1 17 -4 24 -20 26 -15 2 -23 10 -23 23 0 14 -7 19 -25 19 -20 0 -25 5 -25 25 0 20 -5 25 -25 25 -20 0 -25 5 -25 25 0 18 -5 25 -20 25 -13 0 -20 7 -20 20 0 13 7 20 20 20 15 0 20 7 20 25 0 20 -5 25 -25 25 -20 0 -25 -5 -25 -25 0 -18 -5 -25 -20 -25 -17 0 -20 7 -20 50 l0 50 -50 0 c-47 0 -50 2 -50 25 0 18 -5 25 -20 25 -13 0 -20 7 -20 20 0 15 -7 20 -25 20 -20 0 -25 5 -25 25 0 20 -5 25 -25 25 -20 0 -25 5 -25 25 0 18 -5 25 -20 25 -17 0 -20 7 -20 45 0 41 -2 45 -25 45 -20 0 -25 5 -25 25 0 20 -5 25 -25 25 -20 0 -25 5 -25 25 0 20 -5 25 -25 25 -23 0 -25 4 -25 45 0 38 -3 45 -20 45 -15 0 -20 7 -20 25 0 20 -5 25 -25 25 -23 0 -25 4 -25 45 0 41 -2 45 -25 45 -20 0 -25 5 -25 25 0 20 -5 25 -23 25 -18 0 -23 5 -23 23 1 16 -5 23 -21 25 -33 5 -31 42 2 42 23 0 25 4 25 44 0 39 3 45 23 48 16 2 21 9 19 26 -3 20 1 22 47 22 48 0 51 2 51 25 l0 25 210 0 210 0 0 25 0 25 280 0 280 0 0 -44z m520 35 c0 -5 3 -16 6 -25 5 -12 0 -16 -19 -16 -19 0 -26 -6 -29 -22 -2 -15 -11 -24 -25 -26 -19 -3 -23 1 -23 22 0 19 5 26 20 26 13 0 20 7 20 18 0 10 3 22 7 25 10 10 43 8 43 -2z m100 -66 c0 -20 -5 -25 -25 -25 -18 0 -25 -5 -25 -20 0 -15 -7 -20 -25 -20 -20 0 -25 -5 -25 -25 0 -18 -5 -25 -20 -25 -15 0 -20 -7 -20 -25 0 -20 -5 -25 -24 -25 -18 0 -25 -6 -28 -22 -2 -15 -10 -23 -23 -23 -13 0 -21 8 -23 23 -3 18 1 22 22 22 21 0 26 5 26 25 0 18 5 25 19 25 12 0 21 9 25 25 4 16 13 25 26 25 13 0 20 7 20 20 0 15 7 20 25 20 20 0 25 5 25 25 0 20 5 25 25 25 20 0 25 -5 25 -25z m-206 -21 c27 -10 20 -44 -9 -44 -20 0 -25 -5 -25 -25 0 -20 -5 -25 -25 -25 -20 0 -25 -5 -25 -25 0 -18 -5 -25 -20 -25 -13 0 -20 -7 -20 -19 0 -12 -9 -21 -25 -25 -16 -4 -25 -13 -25 -26 0 -15 -7 -20 -25 -20 -20 0 -25 5 -25 25 0 20 5 25 25 25 18 0 25 5 25 20 0 15 7 20 25 20 20 0 25 5 25 25 0 18 5 25 20 25 15 0 20 7 20 25 0 20 5 25 25 25 20 0 25 5 25 25 0 26 7 29 34 19z" fill="#ffffff"/><path d="M1930 2235 c0 -20 -5 -25 -25 -25 -24 0 -25 -2 -25 -70 0 -68 1 -70 25 -70 20 0 25 -5 25 -25 0 -20 -5 -25 -25 -25 -20 0 -25 -5 -25 -25 0 -27 8 -29 59 -19 21 5 31 12 31 25 0 14 7 19 25 19 20 0 25 -5 25 -25 0 -18 -5 -25 -20 -25 -13 0 -20 -7 -20 -20 0 -18 7 -20 70 -20 62 0 70 2 70 19 0 13 8 21 23 23 20 3 22 8 22 73 0 65 -2 70 -22 73 -19 3 -23 -1 -23 -22 0 -21 -5 -26 -25 -26 -20 0 -25 5 -25 25 0 18 5 25 19 25 13 0 20 10 25 31 10 51 8 59 -19 59 -20 0 -25 5 -25 25 0 24 -2 25 -70 25 -68 0 -70 -1 -70 -25z m140 -50 c0 -20 -5 -25 -25 -25 -18 0 -25 -5 -25 -20 0 -13 -7 -20 -20 -20 -15 0 -20 -7 -20 -25 0 -20 -5 -25 -25 -25 -20 0 -25 5 -25 25 0 18 5 25 20 25 13 0 20 7 20 20 0 15 7 20 25 20 20 0 25 5 25 25 0 20 5 25 25 25 20 0 25 -5 25 -25z m0 -140 c0 -20 -5 -25 -25 -25 -20 0 -25 5 -25 25 0 20 5 25 25 25 20 0 25 -5 25 -25z" fill="#ffffff"/><path d="M1596 1949 c-11 -57 -8 -69 19 -69 23 0 25 -4 25 -45 0 -38 -3 -45 -20 -45 -15 0 -20 -7 -20 -25 0 -20 -5 -25 -25 -25 -20 0 -25 -5 -25 -25 0 -20 -5 -25 -25 -25 -18 0 -25 -5 -25 -20 0 -13 -7 -20 -18 -20 -25 0 -31 -7 -25 -31 7 -27 53 -26 53 1 0 13 7 20 20 20 15 0 20 7 20 25 0 20 5 25 25 25 20 0 25 5 25 25 0 20 5 25 25 25 19 0 25 5 25 23 0 20 4 22 45 19 36 -3 45 -8 45 -23 0 -12 7 -19 20 -19 15 0 20 -7 20 -25 0 -20 5 -25 25 -25 20 0 25 -5 25 -25 0 -23 3 -25 50 -25 l50 0 0 50 c0 47 -2 50 -25 50 -20 0 -25 5 -25 25 0 23 -4 25 -45 25 l-45 0 0 45 c0 41 -2 45 -25 45 -20 0 -25 5 -25 25 0 20 -5 25 -25 25 -20 0 -25 5 -25 25 0 23 -4 25 -44 25 -41 0 -44 -2 -50 -31z m144 -89 c0 -15 -7 -20 -25 -20 -18 0 -25 5 -25 20 0 15 7 20 25 20 18 0 25 -5 25 -20z" fill="#ffffff"/></g></svg>